<svg viewBox="0 0 262.57 262.57" xmlns="http://www.w3.org/2000/svg"><g stroke="#000" stroke-linejoin="round" stroke-width=".5"><g fill="#202426"><path d="m82.53 54.07 99.43-18.76-5.81 162.37-92.36 29.73z"/><path d="m124.82 205.25.82-68.21 3.78-.98-.98 71.19z"/><path d="m135.1 202.02 34.46-10.85 3.71 1.86-38.22 12.13z"/><path d="m171.72 125.02 3.93-1.02-2.38 69.03-3.71-1.86z"/><path d="m78.74 52.7 99.21-18.57 4.01 1.18-99.43 18.76z"/><path d="m78.74 52.7 3.79 1.37 1.26 173.34-3.5-2.17z"/><path d="m125.77 126.19 3.76 1.66-42.69 10.86v-2.69z"/><path d="m126.65 51.94 3.92-.76-1.04 76.67-3.76-1.66z"/><path d="m136.37 126.11.04-2.6 35.65-9 3.86 1.54z"/><path d="m174.41 42.69 4.06-.79-2.55 74.15-3.86-1.54z"/><path d="m87.28 217.07 37.54-11.82 3.62 2-41.14 13.05z"/></g><path d="m86.89 147.15 38.75-10.11-.82 68.21-37.54 11.82z" fill="#fff"/><path d="m86.39 59.73 40.26-7.79-.88 74.25-38.94 9.83z" fill="#fff"/><path d="m137.65 49.81 36.76-7.12-2.35 71.82-35.65 9z" fill="#fff"/><path d="m136.24 134.28 35.48-9.26-2.16 66.15-34.46 10.85z" fill="#fff"/></g></svg>